<?xml version="1.0" encoding="UTF-8"?>
<!DOCTYPE svg PUBLIC "-//W3C//DTD SVG 1.1//EN" "http://www.w3.org/Graphics/SVG/1.1/DTD/svg11.dtd">
<svg xmlns="http://www.w3.org/2000/svg" version="1.1" width="32" height="32" viewBox="0 0 512.00 512.00" style="shape-rendering:geometricPrecision; text-rendering:geometricPrecision; image-rendering:optimizeQuality; fill-rule:evenodd; clip-rule:evenodd" xmlns:xlink="http://www.w3.org/1999/xlink">
<g><path style="opacity:0.973" fill="#010100" d="M 236.5,-0.5 C 249.167,-0.5 261.833,-0.5 274.5,-0.5C 354.255,12.8164 403.755,58.8164 423,137.5C 430.494,180.205 423.827,220.539 403,258.5C 394.081,274.01 384.415,289.01 374,303.5C 355.5,327.333 337,351.167 318.5,375C 336.805,378.41 354.805,383.076 372.5,389C 390.241,394.948 405.408,404.782 418,418.5C 428,433.833 428,449.167 418,464.5C 406.63,476.771 393.13,485.938 377.5,492C 347.276,502.81 316.276,509.31 284.5,511.5C 265.167,511.5 245.833,511.5 226.5,511.5C 192.083,509.314 158.749,501.814 126.5,489C 113.648,483.155 102.481,474.989 93,464.5C 83,449.167 83,433.833 93,418.5C 110.86,400.315 132.36,388.481 157.5,383C 169.162,380.202 180.828,377.535 192.5,375C 174,351.167 155.5,327.333 137,303.5C 122.908,284.331 110.575,263.998 100,242.5C 85.5695,208.72 81.5695,173.72 88,137.5C 101.868,75.3043 138.368,32.471 197.5,9C 210.363,4.70016 223.363,1.5335 236.5,-0.5 Z M 245.5,120.5 C 275.604,117.794 295.104,130.794 304,159.5C 306.352,194.811 290.019,214.811 255,219.5C 220.49,214.323 204.49,194.323 207,159.5C 212.683,139.318 225.516,126.318 245.5,120.5 Z"/></g>
<g><path style="opacity:1" fill="#fb6143" d="M 239.5,19.5 C 302.436,16.5486 350.936,41.2153 385,93.5C 408.557,136.28 411.89,180.613 395,226.5C 384.201,250.78 370.868,273.447 355,294.5C 321.338,337.178 288.171,380.178 255.5,423.5C 226.312,383.816 196.146,344.816 165,306.5C 154.278,292.11 143.944,277.444 134,262.5C 101.251,211.437 96.9179,158.103 121,102.5C 146.874,55.4707 186.374,27.8041 239.5,19.5 Z M 245.5,120.5 C 225.516,126.318 212.683,139.318 207,159.5C 204.49,194.323 220.49,214.323 255,219.5C 290.019,214.811 306.352,194.811 304,159.5C 295.104,130.794 275.604,117.794 245.5,120.5 Z"/></g>
<g><path style="opacity:1" fill="#090301" d="M 252.5,39.5 C 263.198,39.3481 267.365,44.3481 265,54.5C 257.95,61.765 251.95,61.0983 247,52.5C 245.831,46.8527 247.665,42.5194 252.5,39.5 Z"/></g>
<g><path style="opacity:1" fill="#040100" d="M 292.5,46.5 C 294.857,46.3367 297.19,46.5034 299.5,47C 348.004,66.8459 376.504,102.679 385,154.5C 385.667,160.5 385.667,166.5 385,172.5C 383.066,178.702 378.899,181.202 372.5,180C 370.376,178.878 368.543,177.378 367,175.5C 365.326,121.934 339.826,85.1005 290.5,65C 283.468,58.0223 284.134,51.8556 292.5,46.5 Z"/></g>
<g><path style="opacity:0.973" fill="#020000" d="M 244.5,99.5 C 287.083,97.8596 313.917,117.526 325,158.5C 327.271,202.811 306.771,229.645 263.5,239C 229.836,240.921 205.669,226.755 191,196.5C 178.887,160.841 188.054,132.008 218.5,110C 226.774,105.194 235.441,101.694 244.5,99.5 Z M 245.5,120.5 C 225.516,126.318 212.683,139.318 207,159.5C 204.49,194.323 220.49,214.323 255,219.5C 290.019,214.811 306.352,194.811 304,159.5C 295.104,130.794 275.604,117.794 245.5,120.5 Z"/></g>
<g><path style="opacity:1" fill="#84e173" d="M 200.5,394.5 C 204.603,393.769 208.103,394.769 211,397.5C 223.053,413.22 234.72,429.22 246,445.5C 252.285,453.487 258.618,453.487 265,445.5C 276.28,429.22 287.947,413.22 300,397.5C 301.117,395.876 302.617,394.876 304.5,394.5C 327.503,397.334 349.836,402.834 371.5,411C 383.304,415.483 393.47,422.316 402,431.5C 406.579,438.136 406.579,444.803 402,451.5C 395.295,458.874 387.462,464.708 378.5,469C 333.257,487.033 286.257,494.366 237.5,491C 204.461,490.392 172.461,484.392 141.5,473C 128.898,468.453 118.065,461.286 109,451.5C 104.421,444.803 104.421,438.136 109,431.5C 123.071,418.126 139.571,408.959 158.5,404C 172.557,400.467 186.557,397.3 200.5,394.5 Z"/></g>
</svg>
